<svg width="17" height="20" viewBox="0 0 17 20" fill="none" xmlns="http://www.w3.org/2000/svg">
<g clip-path="url(#clip0_792_134)">
<path fill-rule="evenodd" clip-rule="evenodd" d="M8.71636 4.78351C8.61936 4.78351 8.52336 4.77151 8.46336 4.75951C8.45136 4.71151 8.42736 4.56651 8.42736 4.42251C8.42736 3.45951 8.92036 2.50951 9.45036 1.90751C10.1244 1.12551 11.2434 0.535512 12.1814 0.499512C12.2054 0.608512 12.2174 0.740512 12.2174 0.872512C12.2174 1.82351 11.8084 2.77451 11.2314 3.45951C10.6174 4.21851 9.55836 4.78351 8.71636 4.78351ZM15.5744 6.82851C15.4664 6.91351 13.5654 7.98451 13.5654 10.3665C13.5654 13.1215 15.9844 14.0965 16.0564 14.1205C16.0444 14.1805 15.6714 15.4565 14.7804 16.7565C13.9864 17.8995 13.1564 19.0425 11.8924 19.0425C10.6294 19.0425 10.3044 18.3075 8.84836 18.3075C7.42836 18.3075 6.92336 19.0665 5.76836 19.0665C4.61236 19.0665 3.80636 18.0075 2.88036 16.7075C1.80936 15.1795 0.943359 12.8095 0.943359 10.5585C0.943359 6.94951 3.28936 5.03551 5.59936 5.03551C6.82736 5.03551 7.84936 5.84251 8.61936 5.84251C9.35436 5.84251 10.4974 4.98851 11.8924 4.98851C12.4224 4.98851 14.3234 5.03551 15.5744 6.82851Z" fill="white"/>
</g>
<defs>
<clipPath id="clip0_792_134">
<rect width="17" height="20" fill="white"/>
</clipPath>
</defs>
</svg>
